<?xml version="1.0" standalone="no"?>
<!DOCTYPE svg PUBLIC "-//W3C//DTD SVG 20010904//EN"
 "http://www.w3.org/TR/2001/REC-SVG-20010904/DTD/svg10.dtd">
<svg version="1.0" xmlns="http://www.w3.org/2000/svg"
 width="143.000000pt" height="131.000000pt" viewBox="0 0 143.000000 131.000000"
 preserveAspectRatio="xMidYMid meet">
<metadata>
Created by potrace 1.10, written by Peter Selinger 2001-2011
</metadata>
<g transform="translate(0.000000,131.000000) scale(0.100000,-0.100000)"
fill="#ffffff" stroke="none">
<path d="M276 1303 c-32 -8 -119 -66 -149 -98 -15 -16 -42 -58 -59 -92 -29
-60 -31 -67 -26 -157 6 -111 27 -156 105 -225 67 -59 64 -57 211 -122 102 -45
91 -12 89 -268 -1 -124 -6 -232 -10 -238 -14 -22 -65 13 -147 99 -68 70 -80
78 -112 78 -61 0 -112 -29 -138 -79 -32 -61 -20 -110 41 -169 l33 -32 471 3
c437 4 542 9 555 27 3 3 35 21 73 39 37 18 67 37 67 42 0 5 6 9 13 9 14 1 86
89 113 140 16 29 19 57 19 160 0 124 0 125 -33 176 -49 77 -179 174 -234 174
-9 0 -20 5 -23 10 -4 6 -10 8 -15 5 -5 -3 -11 -1 -15 5 -3 5 -1 10 5 10 13 0
87 55 107 80 23 27 55 147 49 182 -14 89 -63 157 -140 192 -116 55 -129 56
-493 55 -186 -1 -347 -4 -357 -6z m558 -18 c70 -2 144 -10 165 -16 144 -46
180 -67 211 -130 44 -86 34 -182 -25 -248 -41 -46 -117 -88 -173 -97 -53 -8
-55 -24 -2 -24 147 0 307 -89 368 -204 24 -45 27 -62 27 -146 0 -84 -3 -102
-28 -152 -42 -85 -127 -159 -227 -198 -126 -48 -162 -52 -445 -48 -143 1 -327
2 -410 0 -170 -3 -200 6 -232 73 -43 90 57 188 149 144 13 -6 44 -37 70 -68
47 -58 137 -117 163 -107 29 11 37 86 33 289 l-4 198 30 -7 c17 -3 61 -24 99
-45 66 -39 67 -41 68 -82 0 -23 4 -106 8 -185 10 -185 10 -185 143 -183 114 2
149 8 213 36 186 81 222 375 69 553 -40 47 -163 112 -212 112 -48 0 -44 33 6
48 70 21 132 113 132 196 0 64 -30 136 -74 180 -52 53 -113 75 -225 83 l-84 6
6 -174 c4 -96 7 -215 7 -266 l0 -92 70 -37 c90 -47 163 -115 191 -179 61 -136
1 -321 -133 -417 l-30 -20 32 56 c29 51 32 63 28 125 -3 59 -9 76 -41 124 -60
92 -154 150 -396 247 -216 86 -298 165 -316 306 -14 104 42 233 125 287 40 27
114 62 145 70 20 4 257 1 499 -8z m36 -88 c54 -24 82 -49 108 -95 16 -30 23
-132 11 -175 -12 -45 -59 -91 -109 -106 -40 -12 -56 -36 -45 -70 6 -20 30 -30
83 -37 76 -9 210 -117 215 -173 1 -11 4 -21 7 -21 11 0 30 -99 30 -154 0 -125
-63 -228 -160 -261 -3 -1 -12 -4 -20 -7 -32 -13 -120 -25 -148 -20 l-29 4 48
49 c27 27 62 78 79 113 26 55 30 75 30 147 0 68 -5 94 -25 137 -31 66 -106
141 -190 188 l-65 36 -1 51 c0 29 -3 137 -5 241 l-5 189 68 -6 c39 -3 91 -16
123 -30z m-112 -833 c32 -47 34 -52 30 -124 -2 -59 -8 -82 -25 -103 -12 -16
-19 -35 -16 -43 8 -21 -15 -17 -26 5 -14 25 -19 322 -7 318 6 -2 25 -25 44
-53z"/>
<path d="M340 1263 c-57 -24 -101 -63 -121 -107 -53 -117 9 -232 168 -310 40
-20 74 -36 76 -36 8 0 -5 348 -14 384 -9 34 -52 87 -68 85 -3 0 -22 -7 -41
-16z m56 -31 c21 -13 35 -53 34 -90 -1 -20 -1 -39 0 -42 2 -3 4 -58 5 -122 3
-132 3 -132 -69 -90 -20 12 -39 22 -42 22 -7 0 -67 70 -81 94 -15 26 -16 79
-2 128 17 63 116 126 155 100z"/>
</g>
</svg>
